<svg width="13" height="13" viewBox="0 0 13 13" fill="none" xmlns="http://www.w3.org/2000/svg">
<g clip-path="url(#clip0_336_1247)">
<path d="M3.6733 5.54282L6.00271 3.212L8.33495 5.54353L9.69095 4.18824L6.00342 0.5L2.3173 4.18682L3.67259 5.54212L3.6733 5.54282ZM2.71542 6.5L1.35942 5.144L0.00341797 6.49929L1.35871 7.856L2.71612 6.5H2.71542ZM3.6733 7.45718L6.00271 9.788L8.33495 7.45647L9.69165 8.81176H9.69095L6.00342 12.5L2.31518 8.81176L3.6733 7.45718ZM10.6474 7.85671L12.0034 6.5L10.6481 5.14471L9.29071 6.5L10.6467 7.85671H10.6474Z" fill="#CACBCE"/>
<path d="M7.37848 6.49927L6.00342 5.1228L4.62695 6.49998L4.62907 6.5028L6.00342 7.87645L7.37989 6.50069L7.37848 6.49927Z" fill="#CACBCE"/>
</g>
<defs>
<clipPath id="clip0_336_1247">
<rect width="12" height="12" fill="white" transform="translate(0.00341797 0.5)"/>
</clipPath>
</defs>
</svg>
