<svg width="45" height="41" viewBox="0 0 45 41" fill="none" xmlns="http://www.w3.org/2000/svg">
<path opacity="0.638811" fill-rule="evenodd" clip-rule="evenodd" d="M22.1574 40.3035C34.3946 40.3035 44.3149 31.3492 44.3149 20.3035C44.3149 9.25777 34.3946 0.303467 22.1574 0.303467C9.92022 0.303467 0 9.25777 0 20.3035C0 31.3492 9.92022 40.3035 22.1574 40.3035Z" fill="#E3F4FF"/>
<path fill-rule="evenodd" clip-rule="evenodd" d="M22.7438 21.6351L21.2871 20.6988C20.6837 20.3119 20.5483 19.5623 20.9817 19.0249C21.4151 18.4862 22.2547 18.364 22.8566 18.7522L24.3133 19.6885C24.9167 20.0754 25.0536 20.825 24.6187 21.3624C24.1854 21.8997 23.3457 22.022 22.7438 21.6351ZM28.2392 22.2114L28.9676 22.6802L33.0109 17.6668C33.3961 17.1885 33.2757 16.5209 32.7385 16.177L31.0442 15.0862C30.6469 14.8323 30.0976 14.7852 29.7019 15.0405C28.9044 15.555 27.7968 15.5832 26.9557 15.0418C26.1145 14.5004 25.7925 13.5534 26.0859 12.7165C26.2319 12.3 26.0077 11.85 25.6119 11.5947L23.916 10.5053C23.3803 10.16 22.6324 10.2688 22.2457 10.7471L18.2039 15.7605L18.9322 16.2294C19.5341 16.6163 19.671 17.3659 19.2376 17.9032C18.8043 18.4405 17.9646 18.5628 17.3612 18.1759L16.6329 17.7071L12.4119 22.9395C12.0267 23.4191 12.1471 24.0854 12.6843 24.4306L14.3787 25.5201C14.776 25.7753 15.3252 25.8224 15.721 25.5671C16.5185 25.0526 17.626 25.0244 18.4672 25.5658C19.3084 26.1072 19.6304 27.0529 19.337 27.8911C19.191 28.3062 19.4152 28.7576 19.811 29.0129L21.5068 30.1023C22.0426 30.4462 22.7904 30.3388 23.1772 29.8592L27.3966 24.6268L26.6683 24.1579C26.0663 23.771 25.9294 23.0214 26.3628 22.4841C26.7962 21.9467 27.6358 21.8245 28.2392 22.2114Z" fill="#54A5FF"/>
</svg>
