<svg width="24" height="24" viewBox="0 0 24 24" fill="none" xmlns="http://www.w3.org/2000/svg">
<g clip-path="url(#clip0_357_1365)">
<path d="M8.00002 16.76V18.6667H9.33335V16.82C9.67544 16.6828 9.96023 16.4326 10.1403 16.111C10.3204 15.7894 10.385 15.4159 10.3233 15.0525C10.2615 14.6891 10.0773 14.3579 9.80107 14.1138C9.52489 13.8697 9.17345 13.7276 8.80525 13.711C8.43704 13.6944 8.07426 13.8044 7.77726 14.0227C7.48027 14.241 7.26698 14.5544 7.17286 14.9107C7.07875 15.2671 7.1095 15.645 7.25999 15.9814C7.41048 16.3179 7.67164 16.5927 8.00002 16.76Z" fill="black"/>
<path d="M17.3334 1.33337C15.8881 1.36835 14.5155 1.9744 13.516 3.0189C12.5165 4.0634 11.9714 5.4613 12 6.90671V10H1.33337V21.3334C1.33337 21.687 1.47385 22.0261 1.7239 22.2762C1.97395 22.5262 2.31309 22.6667 2.66671 22.6667H14.6667C15.0203 22.6667 15.3595 22.5262 15.6095 22.2762C15.8596 22.0261 16 21.687 16 21.3334V10H13.3334V6.90671C13.3046 5.81487 13.7092 4.75603 14.4587 3.96156C15.2082 3.16708 16.2417 2.70156 17.3334 2.66671C18.425 2.70156 19.4585 3.16708 20.208 3.96156C20.9575 4.75603 21.3621 5.81487 21.3334 6.90671V11.46C21.3334 11.6369 21.4036 11.8064 21.5286 11.9314C21.6537 12.0565 21.8232 12.1267 22 12.1267C22.1769 12.1267 22.3464 12.0565 22.4714 11.9314C22.5965 11.8064 22.6667 11.6369 22.6667 11.46V6.90671C22.6953 5.4613 22.1503 4.0634 21.1507 3.0189C20.1512 1.9744 18.7786 1.36835 17.3334 1.33337ZM14.6667 11.3334V21.3334H2.66671V11.3334H14.6667Z" fill="black"/>
</g>
<defs>
<clipPath id="clip0_357_1365">
<rect width="24" height="24" fill="white"/>
</clipPath>
</defs>
</svg>
