<svg width="13" height="13" viewBox="0 0 13 13" fill="none" xmlns="http://www.w3.org/2000/svg">
<path fill-rule="evenodd" clip-rule="evenodd" d="M8.06931 6.59553L11.8459 2.59403C12.2905 2.14945 12.2905 1.42785 11.8459 0.982122C11.4002 0.537535 10.6786 0.537535 10.234 0.982122L6.45743 4.98362L2.76678 0.982122C2.32221 0.537535 1.60062 0.537535 1.15491 0.982122C0.709188 1.42785 0.709188 2.14945 1.15491 2.59403L4.84555 6.59553L1.15491 10.4053C0.709188 10.8499 0.709188 11.5715 1.15491 12.0172C1.37719 12.2395 1.66902 12.3512 1.96084 12.3512C2.25267 12.3512 2.54449 12.2395 2.76678 12.0172L6.45743 8.20744L10.234 12.0172C10.4563 12.2395 10.7481 12.3512 11.04 12.3512C11.3318 12.3512 11.6225 12.2395 11.8459 12.0172C12.2905 11.5715 12.2905 10.8499 11.8459 10.4053L8.06931 6.59553Z" fill="#F6B027"/>
</svg>
