<svg width="25" height="24" viewBox="0 0 25 24" fill="none" xmlns="http://www.w3.org/2000/svg">
<path d="M21.8639 20.4693L17.1699 15.7762C18.5304 14.1428 19.2088 12.0478 19.064 9.92691C18.9192 7.80604 17.9624 5.82265 16.3924 4.38932C14.8225 2.95599 12.7605 2.18308 10.6352 2.23138C8.50997 2.27968 6.48515 3.14547 4.98198 4.64864C3.47881 6.15181 2.61303 8.17663 2.56473 10.3019C2.51643 12.4271 3.28933 14.4892 4.72266 16.0591C6.15599 17.629 8.13939 18.5859 10.2603 18.7307C12.3811 18.8755 14.4762 18.1971 16.1096 16.8365L20.8027 21.5306C20.8724 21.6003 20.9551 21.6556 21.0461 21.6933C21.1372 21.731 21.2348 21.7504 21.3333 21.7504C21.4319 21.7504 21.5294 21.731 21.6205 21.6933C21.7115 21.6556 21.7943 21.6003 21.8639 21.5306C21.9336 21.4609 21.9889 21.3782 22.0266 21.2871C22.0643 21.1961 22.0837 21.0985 22.0837 21C22.0837 20.9014 22.0643 20.8038 22.0266 20.7128C21.9889 20.6218 21.9336 20.539 21.8639 20.4693ZM4.08331 10.5C4.08331 9.16495 4.47919 7.8599 5.22089 6.74987C5.96259 5.63984 7.0168 4.77467 8.2502 4.26378C9.4836 3.75289 10.8408 3.61922 12.1502 3.87967C13.4595 4.14012 14.6623 4.78299 15.6063 5.727C16.5503 6.671 17.1932 7.87374 17.4536 9.18311C17.7141 10.4925 17.5804 11.8497 17.0695 13.0831C16.5586 14.3165 15.6934 15.3707 14.5834 16.1124C13.4734 16.8541 12.1683 17.25 10.8333 17.25C9.04371 17.248 7.32798 16.5362 6.06254 15.2708C4.79709 14.0053 4.0853 12.2896 4.08331 10.5Z" fill="#95989D"/>
</svg>
