<svg width="25" height="24" viewBox="0 0 25 24" fill="none" xmlns="http://www.w3.org/2000/svg">
<path d="M11 20.25C11 20.4489 10.921 20.6397 10.7803 20.7803C10.6397 20.921 10.4489 21 10.25 21H5C4.60218 21 4.22064 20.842 3.93934 20.5607C3.65804 20.2794 3.5 19.8978 3.5 19.5V4.5C3.5 4.10218 3.65804 3.72064 3.93934 3.43934C4.22064 3.15804 4.60218 3 5 3H10.25C10.4489 3 10.6397 3.07902 10.7803 3.21967C10.921 3.36032 11 3.55109 11 3.75C11 3.94891 10.921 4.13968 10.7803 4.28033C10.6397 4.42098 10.4489 4.5 10.25 4.5H5V19.5H10.25C10.4489 19.5 10.6397 19.579 10.7803 19.7197C10.921 19.8603 11 20.0511 11 20.25ZM21.2806 11.4694L17.5306 7.71937C17.3899 7.57864 17.199 7.49958 17 7.49958C16.801 7.49958 16.6101 7.57864 16.4694 7.71937C16.3286 7.86011 16.2496 8.05098 16.2496 8.25C16.2496 8.44902 16.3286 8.63989 16.4694 8.78063L18.9397 11.25H10.25C10.0511 11.25 9.86032 11.329 9.71967 11.4697C9.57902 11.6103 9.5 11.8011 9.5 12C9.5 12.1989 9.57902 12.3897 9.71967 12.5303C9.86032 12.671 10.0511 12.75 10.25 12.75H18.9397L16.4694 15.2194C16.3286 15.3601 16.2496 15.551 16.2496 15.75C16.2496 15.949 16.3286 16.1399 16.4694 16.2806C16.6101 16.4214 16.801 16.5004 17 16.5004C17.199 16.5004 17.3899 16.4214 17.5306 16.2806L21.2806 12.5306C21.3504 12.461 21.4057 12.3783 21.4434 12.2872C21.4812 12.1962 21.5006 12.0986 21.5006 12C21.5006 11.9014 21.4812 11.8038 21.4434 11.7128C21.4057 11.6217 21.3504 11.539 21.2806 11.4694Z" fill="#21242C"/>
</svg>
