<svg width="25" height="24" viewBox="0 0 25 24" fill="none" xmlns="http://www.w3.org/2000/svg">
<path d="M21.9657 9.795C22.3045 9.72606 22.6092 9.54219 22.828 9.27449C23.0468 9.00679 23.1665 8.6717 23.1667 8.32594V6C23.1667 5.60218 23.0086 5.22064 22.7273 4.93934C22.446 4.65804 22.0645 4.5 21.6667 4.5H3.66666C3.26883 4.5 2.8873 4.65804 2.606 4.93934C2.32469 5.22064 2.16666 5.60218 2.16666 6V8.32594C2.16685 8.6717 2.28649 9.00679 2.50533 9.27449C2.72417 9.54219 3.02877 9.72606 3.3676 9.795C3.87423 9.90006 4.32917 10.1765 4.65578 10.5778C4.98239 10.9791 5.16072 11.4807 5.16072 11.9981C5.16072 12.5155 4.98239 13.0171 4.65578 13.4184C4.32917 13.8197 3.87423 14.0962 3.3676 14.2013C3.02814 14.2703 2.72305 14.4547 2.50414 14.7232C2.28523 14.9917 2.16598 15.3277 2.16666 15.6741V18C2.16666 18.3978 2.32469 18.7794 2.606 19.0607C2.8873 19.342 3.26883 19.5 3.66666 19.5H21.6667C22.0645 19.5 22.446 19.342 22.7273 19.0607C23.0086 18.7794 23.1667 18.3978 23.1667 18V15.6741C23.1665 15.3283 23.0468 14.9932 22.828 14.7255C22.6092 14.4578 22.3045 14.2739 21.9657 14.205C21.4591 14.0999 21.0042 13.8235 20.6775 13.4222C20.3509 13.0209 20.1726 12.5193 20.1726 12.0019C20.1726 11.4845 20.3509 10.9829 20.6775 10.5816C21.0042 10.1803 21.4591 9.90381 21.9657 9.79875V9.795ZM3.66666 15.675C4.51387 15.5024 5.27542 15.0424 5.82238 14.3728C6.36934 13.7031 6.66811 12.8651 6.66811 12.0005C6.66811 11.1359 6.36934 10.2978 5.82238 9.62819C5.27542 8.95857 4.51387 8.49852 3.66666 8.32594V6H8.91666V18H3.66666V15.675ZM21.6667 15.675V18H10.4167V6H21.6667V8.325C20.8194 8.49759 20.0579 8.95763 19.5109 9.62725C18.964 10.2969 18.6652 11.1349 18.6652 11.9995C18.6652 12.8641 18.964 13.7022 19.5109 14.3718C20.0579 15.0414 20.8194 15.5015 21.6667 15.6741V15.675Z" fill="#95989D"/>
</svg>
