<svg width="13" height="13" viewBox="0 0 13 13" fill="none" xmlns="http://www.w3.org/2000/svg">
<g clip-path="url(#clip0_336_1241)">
<path d="M9.05865 4.51582C8.83725 4.38682 8.54925 4.38682 8.30625 4.51582L6.57885 5.50822L5.40585 6.15502L3.67845 7.14682C3.45705 7.27642 3.16965 7.27642 2.92605 7.14682L1.55325 6.37042C1.33185 6.24143 1.17705 6.00442 1.17705 5.74522V4.21402C1.17705 3.95542 1.30965 3.71842 1.55325 3.58882L2.90325 2.83402C3.12525 2.70442 3.41325 2.70442 3.65685 2.83402L5.00685 3.58882C5.22885 3.71842 5.38365 3.95542 5.38365 4.21402V5.20642L6.55665 4.53742V3.54562C6.55795 3.41681 6.52347 3.29016 6.45705 3.17977C6.39063 3.06939 6.29488 2.97961 6.18045 2.92042L3.67845 1.49722C3.45705 1.36762 3.16965 1.36762 2.92605 1.49722L0.379653 2.92042C0.26523 2.97961 0.169478 3.06939 0.103058 3.17977C0.0366381 3.29016 0.00215686 3.41681 0.00345322 3.54562V6.41362C0.00345322 6.67282 0.136053 6.90982 0.379653 7.03942L2.92605 8.46262C3.14745 8.59162 3.43545 8.59162 3.67845 8.46262L5.40585 7.49182L6.57885 6.82342L8.30625 5.85322C8.52765 5.72362 8.81505 5.72362 9.05865 5.85322L10.4093 6.60802C10.6313 6.73702 10.7861 6.97402 10.7861 7.23322V8.76442C10.7861 9.02303 10.6529 9.26002 10.4093 9.38962L9.05925 10.166C8.83725 10.2956 8.54925 10.2956 8.30625 10.166L6.95565 9.41123C6.73365 9.28162 6.57885 9.04462 6.57885 8.78603V7.79362L5.40585 8.46262V9.45442C5.40585 9.71302 5.53845 9.95062 5.78205 10.0796L8.32785 11.5028C8.54985 11.6324 8.83785 11.6324 9.08085 11.5028L11.6273 10.0796C11.8487 9.95062 12.0035 9.71362 12.0035 9.45442V6.58642C12.0049 6.45751 11.9704 6.33073 11.904 6.22023C11.8376 6.10973 11.7418 6.01986 11.6273 5.96062L9.05925 4.51582H9.05865Z" fill="#CACBCE"/>
</g>
<defs>
<clipPath id="clip0_336_1241">
<rect width="12" height="12" fill="white" transform="translate(0.00341797 0.5)"/>
</clipPath>
</defs>
</svg>
