<svg width="45" height="41" viewBox="0 0 45 41" fill="none" xmlns="http://www.w3.org/2000/svg">
<path opacity="0.638811" fill-rule="evenodd" clip-rule="evenodd" d="M22.1574 40.4551C34.3947 40.4551 44.3149 31.5008 44.3149 20.4551C44.3149 9.40938 34.3947 0.455078 22.1574 0.455078C9.92022 0.455078 0 9.40938 0 20.4551C0 31.5008 9.92022 40.4551 22.1574 40.4551Z" fill="#FFD6E2"/>
<path fill-rule="evenodd" clip-rule="evenodd" d="M22.7438 21.7867L21.2872 20.8504C20.6837 20.4635 20.5483 19.7139 20.9817 19.1765C21.4151 18.6378 22.2547 18.5156 22.8566 18.9038L24.3133 19.8401C24.9167 20.227 25.0536 20.9766 24.6187 21.514C24.1854 22.0513 23.3457 22.1736 22.7438 21.7867ZM28.2393 22.363L28.9676 22.8318L33.0109 17.8184C33.3961 17.3401 33.2758 16.6725 32.7386 16.3286L31.0442 15.2378C30.6469 14.9839 30.0977 14.9369 29.7019 15.1921C28.9044 15.7066 27.7968 15.7348 26.9557 15.1934C26.1145 14.6521 25.7925 13.705 26.0859 12.8681C26.2319 12.4516 26.0077 12.0016 25.6119 11.7463L23.916 10.6569C23.3803 10.3116 22.6324 10.4204 22.2457 10.8987L18.2039 15.9121L18.9322 16.381C19.5341 16.7679 19.671 17.5175 19.2376 18.0548C18.8043 18.5922 17.9646 18.7144 17.3612 18.3275L16.6329 17.8587L12.4119 23.0911C12.0267 23.5707 12.1471 24.237 12.6843 24.5822L14.3787 25.6717C14.776 25.927 15.3252 25.974 15.721 25.7187C16.5185 25.2042 17.626 25.176 18.4672 25.7174C19.3084 26.2588 19.6304 27.2045 19.337 28.0428C19.191 28.4579 19.4152 28.9092 19.811 29.1645L21.5069 30.2539C22.0426 30.5978 22.7904 30.4904 23.1772 30.0108L27.3966 24.7784L26.6683 24.3095C26.0663 23.9226 25.9294 23.173 26.3628 22.6357C26.7962 22.0984 27.6358 21.9761 28.2393 22.363Z" fill="#FC1055"/>
</svg>
