<svg width="380" height="40" viewBox="0 0 380 40" fill="none" xmlns="http://www.w3.org/2000/svg">
<path d="M20 20C20 31.0457 11.0457 40 0 40V0C11.0457 0 20 8.9543 20 20Z" fill="url(#paint0_linear_336_1079)"/>
<circle cx="34.7061" cy="20" r="6" fill="url(#paint1_linear_336_1079)"/>
<circle cx="55.4116" cy="20" r="6" fill="url(#paint2_linear_336_1079)"/>
<circle cx="76.1177" cy="20" r="6" fill="url(#paint3_linear_336_1079)"/>
<circle cx="96.8237" cy="20" r="6" fill="url(#paint4_linear_336_1079)"/>
<circle cx="117.529" cy="20" r="6" fill="url(#paint5_linear_336_1079)"/>
<circle cx="138.235" cy="20" r="6" fill="url(#paint6_linear_336_1079)"/>
<circle cx="158.941" cy="20" r="6" fill="url(#paint7_linear_336_1079)"/>
<circle cx="179.647" cy="20" r="6" fill="url(#paint8_linear_336_1079)"/>
<circle cx="200.353" cy="20" r="6" fill="url(#paint9_linear_336_1079)"/>
<circle cx="221.059" cy="20" r="6" fill="url(#paint10_linear_336_1079)"/>
<circle cx="241.765" cy="20" r="6" fill="url(#paint11_linear_336_1079)"/>
<circle cx="262.471" cy="20" r="6" fill="url(#paint12_linear_336_1079)"/>
<circle cx="283.176" cy="20" r="6" fill="url(#paint13_linear_336_1079)"/>
<circle cx="303.882" cy="20" r="6" fill="url(#paint14_linear_336_1079)"/>
<circle cx="324.588" cy="20" r="6" fill="url(#paint15_linear_336_1079)"/>
<circle cx="345.294" cy="20" r="6" fill="url(#paint16_linear_336_1079)"/>
<path d="M360 20C360 8.9543 368.954 -9.65645e-07 380 0L380 40C368.954 40 360 31.0457 360 20Z" fill="url(#paint17_linear_336_1079)"/>
<defs>
<linearGradient id="paint0_linear_336_1079" x1="10" y1="0" x2="10" y2="40" gradientUnits="userSpaceOnUse">
<stop stop-color="#F6B027"/>
<stop offset="1" stop-color="#DB9205"/>
</linearGradient>
<linearGradient id="paint1_linear_336_1079" x1="34.7061" y1="14" x2="34.7061" y2="26" gradientUnits="userSpaceOnUse">
<stop stop-color="#F6B027"/>
<stop offset="1" stop-color="#DB9205"/>
</linearGradient>
<linearGradient id="paint2_linear_336_1079" x1="55.4116" y1="14" x2="55.4116" y2="26" gradientUnits="userSpaceOnUse">
<stop stop-color="#F6B027"/>
<stop offset="1" stop-color="#DB9205"/>
</linearGradient>
<linearGradient id="paint3_linear_336_1079" x1="76.1177" y1="14" x2="76.1177" y2="26" gradientUnits="userSpaceOnUse">
<stop stop-color="#F6B027"/>
<stop offset="1" stop-color="#DB9205"/>
</linearGradient>
<linearGradient id="paint4_linear_336_1079" x1="96.8237" y1="14" x2="96.8237" y2="26" gradientUnits="userSpaceOnUse">
<stop stop-color="#F6B027"/>
<stop offset="1" stop-color="#DB9205"/>
</linearGradient>
<linearGradient id="paint5_linear_336_1079" x1="117.529" y1="14" x2="117.529" y2="26" gradientUnits="userSpaceOnUse">
<stop stop-color="#F6B027"/>
<stop offset="1" stop-color="#DB9205"/>
</linearGradient>
<linearGradient id="paint6_linear_336_1079" x1="138.235" y1="14" x2="138.235" y2="26" gradientUnits="userSpaceOnUse">
<stop stop-color="#F6B027"/>
<stop offset="1" stop-color="#DB9205"/>
</linearGradient>
<linearGradient id="paint7_linear_336_1079" x1="158.941" y1="14" x2="158.941" y2="26" gradientUnits="userSpaceOnUse">
<stop stop-color="#F6B027"/>
<stop offset="1" stop-color="#DB9205"/>
</linearGradient>
<linearGradient id="paint8_linear_336_1079" x1="179.647" y1="14" x2="179.647" y2="26" gradientUnits="userSpaceOnUse">
<stop stop-color="#F6B027"/>
<stop offset="1" stop-color="#DB9205"/>
</linearGradient>
<linearGradient id="paint9_linear_336_1079" x1="200.353" y1="14" x2="200.353" y2="26" gradientUnits="userSpaceOnUse">
<stop stop-color="#F6B027"/>
<stop offset="1" stop-color="#DB9205"/>
</linearGradient>
<linearGradient id="paint10_linear_336_1079" x1="221.059" y1="14" x2="221.059" y2="26" gradientUnits="userSpaceOnUse">
<stop stop-color="#F6B027"/>
<stop offset="1" stop-color="#DB9205"/>
</linearGradient>
<linearGradient id="paint11_linear_336_1079" x1="241.765" y1="14" x2="241.765" y2="26" gradientUnits="userSpaceOnUse">
<stop stop-color="#F6B027"/>
<stop offset="1" stop-color="#DB9205"/>
</linearGradient>
<linearGradient id="paint12_linear_336_1079" x1="262.471" y1="14" x2="262.471" y2="26" gradientUnits="userSpaceOnUse">
<stop stop-color="#F6B027"/>
<stop offset="1" stop-color="#DB9205"/>
</linearGradient>
<linearGradient id="paint13_linear_336_1079" x1="283.176" y1="14" x2="283.176" y2="26" gradientUnits="userSpaceOnUse">
<stop stop-color="#F6B027"/>
<stop offset="1" stop-color="#DB9205"/>
</linearGradient>
<linearGradient id="paint14_linear_336_1079" x1="303.882" y1="14" x2="303.882" y2="26" gradientUnits="userSpaceOnUse">
<stop stop-color="#F6B027"/>
<stop offset="1" stop-color="#DB9205"/>
</linearGradient>
<linearGradient id="paint15_linear_336_1079" x1="324.588" y1="14" x2="324.588" y2="26" gradientUnits="userSpaceOnUse">
<stop stop-color="#F6B027"/>
<stop offset="1" stop-color="#DB9205"/>
</linearGradient>
<linearGradient id="paint16_linear_336_1079" x1="345.294" y1="14" x2="345.294" y2="26" gradientUnits="userSpaceOnUse">
<stop stop-color="#F6B027"/>
<stop offset="1" stop-color="#DB9205"/>
</linearGradient>
<linearGradient id="paint17_linear_336_1079" x1="370" y1="40" x2="370" y2="-8.74228e-07" gradientUnits="userSpaceOnUse">
<stop stop-color="#F6B027"/>
<stop offset="1" stop-color="#DB9205"/>
</linearGradient>
</defs>
</svg>
