<svg width="428" height="391" viewBox="0 0 428 391" fill="none" xmlns="http://www.w3.org/2000/svg">
<path fill-rule="evenodd" clip-rule="evenodd" d="M71.227 162.912L78.8257 164.666L75.5801 178.725C72.9001 190.333 71.7205 202.244 72.1993 214.146C72.5115 221.922 73.2532 230.047 74.8853 234.841L66.2745 237.715C66.2745 237.715 56.2762 217.346 71.227 162.912Z" fill="#4C32CC"/>
<mask id="mask0_336_685" style="mask-type:luminance" maskUnits="userSpaceOnUse" x="76" y="165" width="128" height="133">
<path fill-rule="evenodd" clip-rule="evenodd" d="M82.7119 165.113C82.7119 165.113 65.9747 227.507 89.2393 254.132C115.523 284.209 195.64 297.448 195.64 297.448L203.612 262.92C121.701 244.918 112.423 239.822 105.619 223.022C98.8147 206.222 107.599 174.609 107.599 174.609L104.768 165.091L82.7119 165.113Z" fill="white"/>
</mask>
<g mask="url(#mask0_336_685)">
<path fill-rule="evenodd" clip-rule="evenodd" d="M171.887 254.459L198.898 260.695L195.086 277.203L188.251 275.625L183.517 294.649L161.388 289.54L171.887 254.459Z" fill="#C2C6CE"/>
</g>
<mask id="mask1_336_685" style="mask-type:luminance" maskUnits="userSpaceOnUse" x="76" y="165" width="128" height="133">
<path fill-rule="evenodd" clip-rule="evenodd" d="M82.7119 165.113C82.7119 165.113 65.9747 227.507 89.2393 254.132C115.523 284.209 195.64 297.448 195.64 297.448L203.612 262.92C121.701 244.918 112.423 239.822 105.619 223.022C98.8147 206.222 107.599 174.609 107.599 174.609L104.768 165.091L82.7119 165.113Z" fill="white"/>
</mask>
<g mask="url(#mask1_336_685)">
<path fill-rule="evenodd" clip-rule="evenodd" d="M149.323 249.25L168.967 254.239L158.174 288.118L137.196 283.274L149.323 249.25Z" fill="#FFB37F"/>
</g>
<mask id="mask2_336_685" style="mask-type:luminance" maskUnits="userSpaceOnUse" x="76" y="165" width="128" height="133">
<path fill-rule="evenodd" clip-rule="evenodd" d="M82.7119 165.113C82.7119 165.113 65.9747 227.507 89.2393 254.132C115.523 284.209 195.64 297.448 195.64 297.448L203.612 262.92C121.701 244.918 112.423 239.822 105.619 223.022C98.8147 206.222 107.599 174.609 107.599 174.609L104.768 165.091L82.7119 165.113Z" fill="white"/>
</mask>
<g mask="url(#mask2_336_685)">
<path fill-rule="evenodd" clip-rule="evenodd" d="M125.772 240.403C126.548 240.753 147.316 248.786 147.316 248.786L134.263 281.573L108.587 271.042L125.772 240.403Z" fill="#FFB37F"/>
</g>
<mask id="mask3_336_685" style="mask-type:luminance" maskUnits="userSpaceOnUse" x="76" y="165" width="128" height="133">
<path fill-rule="evenodd" clip-rule="evenodd" d="M82.7119 165.113C82.7119 165.113 65.9747 227.507 89.2393 254.132C115.523 284.209 195.64 297.448 195.64 297.448L203.612 262.92C121.701 244.918 112.423 239.822 105.619 223.022C98.8147 206.222 107.599 174.609 107.599 174.609L104.768 165.091L82.7119 165.113Z" fill="white"/>
</mask>
<g mask="url(#mask3_336_685)">
<path fill-rule="evenodd" clip-rule="evenodd" d="M114.39 234.026L123.332 239.84L105.268 269.083L80.5762 250.071L114.39 234.026Z" fill="#4C32CC"/>
</g>
<mask id="mask4_336_685" style="mask-type:luminance" maskUnits="userSpaceOnUse" x="76" y="165" width="128" height="133">
<path fill-rule="evenodd" clip-rule="evenodd" d="M82.7119 165.113C82.7119 165.113 65.9747 227.507 89.2393 254.132C115.523 284.209 195.64 297.448 195.64 297.448L203.612 262.92C121.701 244.918 112.423 239.822 105.619 223.022C98.8147 206.222 107.599 174.609 107.599 174.609L104.768 165.091L82.7119 165.113Z" fill="white"/>
</mask>
<g mask="url(#mask4_336_685)">
<path fill-rule="evenodd" clip-rule="evenodd" d="M104.395 213.476L109.478 227.095L94.1785 231.746L96.5639 239.228L79.2274 246.024L75.5283 239.033L79.382 237.194L74.2139 215.033L104.395 213.476Z" fill="#C2C6CE"/>
</g>
<mask id="mask5_336_685" style="mask-type:luminance" maskUnits="userSpaceOnUse" x="76" y="165" width="128" height="133">
<path fill-rule="evenodd" clip-rule="evenodd" d="M82.7119 165.113C82.7119 165.113 65.9747 227.507 89.2393 254.132C115.523 284.209 195.64 297.448 195.64 297.448L203.612 262.92C121.701 244.918 112.423 239.822 105.619 223.022C98.8147 206.222 107.599 174.609 107.599 174.609L104.768 165.091L82.7119 165.113Z" fill="white"/>
</mask>
<g mask="url(#mask5_336_685)">
<path fill-rule="evenodd" clip-rule="evenodd" d="M107.686 194.518L104.675 210.53L74.5858 211.197L77.6989 189.3L107.686 194.518Z" fill="#C2C6CE"/>
</g>
<mask id="mask6_336_685" style="mask-type:luminance" maskUnits="userSpaceOnUse" x="76" y="165" width="128" height="133">
<path fill-rule="evenodd" clip-rule="evenodd" d="M82.7119 165.113C82.7119 165.113 65.9747 227.507 89.2393 254.132C115.523 284.209 195.64 297.448 195.64 297.448L203.612 262.92C121.701 244.918 112.423 239.822 105.619 223.022C98.8147 206.222 107.599 174.609 107.599 174.609L104.768 165.091L82.7119 165.113Z" fill="white"/>
</mask>
<g mask="url(#mask6_336_685)">
<path fill-rule="evenodd" clip-rule="evenodd" d="M78.6699 185.092L108.392 191.954L112.154 175.661L99.245 172.681L100.067 169.12L82.7107 165.113L78.6699 185.092Z" fill="#4C32CC"/>
</g>
<mask id="mask7_336_685" style="mask-type:luminance" maskUnits="userSpaceOnUse" x="76" y="165" width="128" height="133">
<path fill-rule="evenodd" clip-rule="evenodd" d="M82.7119 165.113C82.7119 165.113 65.9747 227.507 89.2393 254.132C115.523 284.209 195.64 297.448 195.64 297.448L203.612 262.92C121.701 244.918 112.423 239.822 105.619 223.022C98.8147 206.222 107.599 174.609 107.599 174.609L104.768 165.091L82.7119 165.113Z" fill="white"/>
</mask>
<g mask="url(#mask7_336_685)">
<path fill-rule="evenodd" clip-rule="evenodd" d="M200.834 274.951L195.64 297.448L186.854 295.419L190.291 280.531L195.66 281.77L197.416 274.162L200.834 274.951Z" fill="#C2C6CE"/>
</g>
<mask id="mask8_336_685" style="mask-type:luminance" maskUnits="userSpaceOnUse" x="29" y="154" width="167" height="193">
<path fill-rule="evenodd" clip-rule="evenodd" d="M35.0928 154.87C16.624 240.799 47.7401 272.186 60.5698 284.362C101.281 322.987 182.445 346.508 183.987 346.952L184.01 346.958L195.976 309.585L172.843 299.012C172.843 299.012 109.629 288.975 79.0943 261.739C45.4372 231.718 61.1075 160.876 61.1075 160.876L35.0928 154.87Z" fill="white"/>
</mask>
<g mask="url(#mask8_336_685)">
<path fill-rule="evenodd" clip-rule="evenodd" d="M28.2634 153.294L66.9605 162.228L61.021 187.954L24.2711 181.964L28.2634 153.294Z" fill="#4C32CC"/>
</g>
<mask id="mask9_336_685" style="mask-type:luminance" maskUnits="userSpaceOnUse" x="29" y="154" width="167" height="193">
<path fill-rule="evenodd" clip-rule="evenodd" d="M35.0928 154.87C16.624 240.799 47.7401 272.186 60.5698 284.362C101.281 322.987 182.445 346.508 183.987 346.952L184.01 346.958L195.976 309.585L172.843 299.012C172.843 299.012 109.629 288.975 79.0943 261.739C45.4372 231.718 61.1075 160.876 61.1075 160.876L35.0928 154.87Z" fill="white"/>
</mask>
<g mask="url(#mask9_336_685)">
<path fill-rule="evenodd" clip-rule="evenodd" d="M25.2594 185.593L60.4745 190.322L58.3483 215.454L24.4535 214.8L25.2594 185.593Z" fill="#4C32CC"/>
</g>
<mask id="mask10_336_685" style="mask-type:luminance" maskUnits="userSpaceOnUse" x="29" y="154" width="167" height="193">
<path fill-rule="evenodd" clip-rule="evenodd" d="M35.0928 154.87C16.624 240.799 47.7401 272.186 60.5698 284.362C101.281 322.987 182.445 346.508 183.987 346.952L184.01 346.958L195.976 309.585L172.843 299.012C172.843 299.012 109.629 288.975 79.0943 261.739C45.4372 231.718 61.1075 160.876 61.1075 160.876L35.0928 154.87Z" fill="white"/>
</mask>
<g mask="url(#mask10_336_685)">
<path fill-rule="evenodd" clip-rule="evenodd" d="M59.5772 218.317L63.5579 235.878L34.1839 244.853L24.8074 218.708L59.5772 218.317Z" fill="#4C32CC"/>
</g>
<mask id="mask11_336_685" style="mask-type:luminance" maskUnits="userSpaceOnUse" x="29" y="154" width="167" height="193">
<path fill-rule="evenodd" clip-rule="evenodd" d="M35.0928 154.87C16.624 240.799 47.7401 272.186 60.5698 284.362C101.281 322.987 182.445 346.508 183.987 346.952L184.01 346.958L195.976 309.585L172.843 299.012C172.843 299.012 109.629 288.975 79.0943 261.739C45.4372 231.718 61.1075 160.876 61.1075 160.876L35.0928 154.87Z" fill="white"/>
</mask>
<g mask="url(#mask11_336_685)">
<path fill-rule="evenodd" clip-rule="evenodd" d="M64.1949 238.47L73.4548 252.784L47.7393 272.187L34.9428 248.39L64.1949 238.47Z" fill="#4C32CC"/>
</g>
<mask id="mask12_336_685" style="mask-type:luminance" maskUnits="userSpaceOnUse" x="29" y="154" width="167" height="193">
<path fill-rule="evenodd" clip-rule="evenodd" d="M35.0928 154.87C16.624 240.799 47.7401 272.186 60.5698 284.362C101.281 322.987 182.445 346.508 183.987 346.952L184.01 346.958L195.976 309.585L172.843 299.012C172.843 299.012 109.629 288.975 79.0943 261.739C45.4372 231.718 61.1075 160.876 61.1075 160.876L35.0928 154.87Z" fill="white"/>
</mask>
<g mask="url(#mask12_336_685)">
<path fill-rule="evenodd" clip-rule="evenodd" d="M75.5044 257.445L88.5742 268.888L69.4211 294.228L50.0898 276.84L75.5044 257.445Z" fill="#4C32CC"/>
</g>
<mask id="mask13_336_685" style="mask-type:luminance" maskUnits="userSpaceOnUse" x="29" y="154" width="167" height="193">
<path fill-rule="evenodd" clip-rule="evenodd" d="M35.0928 154.87C16.624 240.799 47.7401 272.186 60.5698 284.362C101.281 322.987 182.445 346.508 183.987 346.952L184.01 346.958L195.976 309.585L172.843 299.012C172.843 299.012 109.629 288.975 79.0943 261.739C45.4372 231.718 61.1075 160.876 61.1075 160.876L35.0928 154.87Z" fill="white"/>
</mask>
<g mask="url(#mask13_336_685)">
<path fill-rule="evenodd" clip-rule="evenodd" d="M91.0731 271.422L107.852 279.97L97.4344 312.855L72.8684 297.234L91.0731 271.422Z" fill="#4C32CC"/>
</g>
<mask id="mask14_336_685" style="mask-type:luminance" maskUnits="userSpaceOnUse" x="29" y="154" width="167" height="193">
<path fill-rule="evenodd" clip-rule="evenodd" d="M35.0928 154.87C16.624 240.799 47.7401 272.186 60.5698 284.362C101.281 322.987 182.445 346.508 183.987 346.952L184.01 346.958L195.976 309.585L172.843 299.012C172.843 299.012 109.629 288.975 79.0943 261.739C45.4372 231.718 61.1075 160.876 61.1075 160.876L35.0928 154.87Z" fill="white"/>
</mask>
<g mask="url(#mask14_336_685)">
<path fill-rule="evenodd" clip-rule="evenodd" d="M110.692 281.392L135.02 288.03L124.651 328.492L100.838 315.17L110.692 281.392Z" fill="#FFB37F"/>
</g>
<mask id="mask15_336_685" style="mask-type:luminance" maskUnits="userSpaceOnUse" x="29" y="154" width="167" height="193">
<path fill-rule="evenodd" clip-rule="evenodd" d="M35.0928 154.87C16.624 240.799 47.7401 272.186 60.5698 284.362C101.281 322.987 182.445 346.508 183.987 346.952L184.01 346.958L195.976 309.585L172.843 299.012C172.843 299.012 109.629 288.975 79.0943 261.739C45.4372 231.718 61.1075 160.876 61.1075 160.876L35.0928 154.87Z" fill="white"/>
</mask>
<g mask="url(#mask15_336_685)">
<path fill-rule="evenodd" clip-rule="evenodd" d="M137.847 289.135L165.04 297.21L155.095 340.283L128.552 329.393L137.847 289.135Z" fill="#C2C6CE"/>
</g>
<mask id="mask16_336_685" style="mask-type:luminance" maskUnits="userSpaceOnUse" x="29" y="154" width="167" height="193">
<path fill-rule="evenodd" clip-rule="evenodd" d="M35.0928 154.87C16.624 240.799 47.7401 272.186 60.5698 284.362C101.281 322.987 182.445 346.508 183.987 346.952L184.01 346.958L195.976 309.585L172.843 299.012C172.843 299.012 109.629 288.975 79.0943 261.739C45.4372 231.718 61.1075 160.876 61.1075 160.876L35.0928 154.87Z" fill="white"/>
</mask>
<g mask="url(#mask16_336_685)">
<path fill-rule="evenodd" clip-rule="evenodd" d="M168.074 297.911L172.844 299.012L170.057 311.083L191.167 315.957L188.433 327.799L176.428 325.027L172.004 344.187L158.129 340.984L168.074 297.911Z" fill="#C2C6CE"/>
</g>
<mask id="mask17_336_685" style="mask-type:luminance" maskUnits="userSpaceOnUse" x="29" y="154" width="167" height="193">
<path fill-rule="evenodd" clip-rule="evenodd" d="M35.0928 154.87C16.624 240.799 47.7401 272.186 60.5698 284.362C101.281 322.987 182.445 346.508 183.987 346.952L184.01 346.958L195.976 309.585L172.843 299.012C172.843 299.012 109.629 288.975 79.0943 261.739C45.4372 231.718 61.1075 160.876 61.1075 160.876L35.0928 154.87Z" fill="white"/>
</mask>
<g mask="url(#mask17_336_685)">
<path fill-rule="evenodd" clip-rule="evenodd" d="M175.229 344.932L184.008 346.959L187.686 331.027L178.907 329L175.229 344.932Z" fill="#FFB37F"/>
</g>
<path fill-rule="evenodd" clip-rule="evenodd" d="M71.5806 158.015L79.1794 159.769L82.425 145.711C85.1047 134.104 89.2663 122.88 94.9142 112.392C98.6035 105.54 102.832 98.5636 106.4 94.9703L99.9209 88.6116C99.9209 88.6116 82.005 102.537 71.5806 158.015Z" fill="#4C32CC"/>
<mask id="mask18_336_685" style="mask-type:luminance" maskUnits="userSpaceOnUse" x="83" y="78" width="160" height="93">
<path fill-rule="evenodd" clip-rule="evenodd" d="M128.215 83.932C95.6341 97.6622 83.3255 161.079 83.3255 161.079L103.14 170.768L109.856 163.455C109.856 163.455 115.819 131.191 129.3 119.074C142.78 106.956 153.353 106.442 234.866 126.168L242.837 91.6414C242.837 91.6414 235.622 89.4875 224.539 86.9289C199.24 81.0894 153.811 73.1443 128.215 83.932Z" fill="white"/>
</mask>
<g mask="url(#mask18_336_685)">
<path fill-rule="evenodd" clip-rule="evenodd" d="M202.642 119.867L229.653 126.103L233.464 109.594L226.629 108.016L230.713 88.8432L208.585 83.7344L202.642 119.867Z" fill="#C2C6CE"/>
</g>
<mask id="mask19_336_685" style="mask-type:luminance" maskUnits="userSpaceOnUse" x="83" y="78" width="160" height="93">
<path fill-rule="evenodd" clip-rule="evenodd" d="M128.215 83.932C95.6341 97.6622 83.3255 161.079 83.3255 161.079L103.14 170.768L109.856 163.455C109.856 163.455 115.819 131.191 129.3 119.074C142.78 106.956 153.353 106.442 234.866 126.168L242.837 91.6414C242.837 91.6414 235.622 89.4875 224.539 86.9289C199.24 81.0894 153.811 73.1443 128.215 83.932Z" fill="white"/>
</mask>
<g mask="url(#mask19_336_685)">
<path fill-rule="evenodd" clip-rule="evenodd" d="M180.078 114.658L199.921 118.785L205.072 83.6052L184.094 78.762L180.078 114.658Z" fill="#FFB37F"/>
</g>
<mask id="mask20_336_685" style="mask-type:luminance" maskUnits="userSpaceOnUse" x="83" y="78" width="160" height="93">
<path fill-rule="evenodd" clip-rule="evenodd" d="M128.215 83.932C95.6341 97.6622 83.3255 161.079 83.3255 161.079L103.14 170.768L109.856 163.455C109.856 163.455 115.819 131.191 129.3 119.074C142.78 106.956 153.353 106.442 234.866 126.168L242.837 91.6414C242.837 91.6414 235.622 89.4875 224.539 86.9289C199.24 81.0894 153.811 73.1443 128.215 83.932Z" fill="white"/>
</mask>
<g mask="url(#mask20_336_685)">
<path fill-rule="evenodd" clip-rule="evenodd" d="M155.032 112.285C155.883 112.311 178.071 114.194 178.071 114.194L180.712 79.0043L153.018 77.2138L155.032 112.285Z" fill="#FFB37F"/>
</g>
<mask id="mask21_336_685" style="mask-type:luminance" maskUnits="userSpaceOnUse" x="83" y="78" width="160" height="93">
<path fill-rule="evenodd" clip-rule="evenodd" d="M128.215 83.932C95.6341 97.6622 83.3255 161.079 83.3255 161.079L103.14 170.768L109.856 163.455C109.856 163.455 115.819 131.191 129.3 119.074C142.78 106.956 153.353 106.442 234.866 126.168L242.837 91.6414C242.837 91.6414 235.622 89.4875 224.539 86.9289C199.24 81.0894 153.811 73.1443 128.215 83.932Z" fill="white"/>
</mask>
<g mask="url(#mask21_336_685)">
<path fill-rule="evenodd" clip-rule="evenodd" d="M142.006 113.029L152.592 111.722L149.176 77.5194L118.649 83.7845L142.006 113.029Z" fill="#C2C6CE"/>
</g>
<mask id="mask22_336_685" style="mask-type:luminance" maskUnits="userSpaceOnUse" x="83" y="78" width="160" height="93">
<path fill-rule="evenodd" clip-rule="evenodd" d="M128.215 83.932C95.6341 97.6622 83.3255 161.079 83.3255 161.079L103.14 170.768L109.856 163.455C109.856 163.455 115.819 131.191 129.3 119.074C142.78 106.956 153.353 106.442 234.866 126.168L242.837 91.6414C242.837 91.6414 235.622 89.4875 224.539 86.9289C199.24 81.0894 153.811 73.1443 128.215 83.932Z" fill="white"/>
</mask>
<g mask="url(#mask22_336_685)">
<path fill-rule="evenodd" clip-rule="evenodd" d="M124.015 127.116L134.553 117.105L122.841 106.218L128.266 100.537L115.663 86.829L109.273 91.4924L111.931 94.8337L97.5708 112.487L124.015 127.116Z" fill="#4C32CC"/>
</g>
<mask id="mask23_336_685" style="mask-type:luminance" maskUnits="userSpaceOnUse" x="83" y="78" width="160" height="93">
<path fill-rule="evenodd" clip-rule="evenodd" d="M128.215 83.932C95.6341 97.6622 83.3255 161.079 83.3255 161.079L103.14 170.768L109.856 163.455C109.856 163.455 115.819 131.191 129.3 119.074C142.78 106.956 153.353 106.442 234.866 126.168L242.837 91.6414C242.837 91.6414 235.622 89.4875 224.539 86.9289C199.24 81.0894 153.811 73.1443 128.215 83.932Z" fill="white"/>
</mask>
<g mask="url(#mask23_336_685)">
<path fill-rule="evenodd" clip-rule="evenodd" d="M118.663 145.598L122.975 129.886L96.2237 116.097L89.4228 137.142L118.663 145.598Z" fill="#C2C6CE"/>
</g>
<mask id="mask24_336_685" style="mask-type:luminance" maskUnits="userSpaceOnUse" x="83" y="78" width="160" height="93">
<path fill-rule="evenodd" clip-rule="evenodd" d="M128.215 83.932C95.6341 97.6622 83.3255 161.079 83.3255 161.079L103.14 170.768L109.856 163.455C109.856 163.455 115.819 131.191 129.3 119.074C142.78 106.956 153.353 106.442 234.866 126.168L242.837 91.6414C242.837 91.6414 235.622 89.4875 224.539 86.9289C199.24 81.0894 153.811 73.1443 128.215 83.932Z" fill="white"/>
</mask>
<g mask="url(#mask24_336_685)">
<path fill-rule="evenodd" clip-rule="evenodd" d="M88.4506 141.351L118.173 148.213L114.412 164.506L101.503 161.526L100.681 165.086L83.3245 161.078L88.4506 141.351Z" fill="#C2C6CE"/>
</g>
<mask id="mask25_336_685" style="mask-type:luminance" maskUnits="userSpaceOnUse" x="83" y="78" width="160" height="93">
<path fill-rule="evenodd" clip-rule="evenodd" d="M128.215 83.932C95.6341 97.6622 83.3255 161.079 83.3255 161.079L103.14 170.768L109.856 163.455C109.856 163.455 115.819 131.191 129.3 119.074C142.78 106.956 153.353 106.442 234.866 126.168L242.837 91.6414C242.837 91.6414 235.622 89.4875 224.539 86.9289C199.24 81.0894 153.811 73.1443 128.215 83.932Z" fill="white"/>
</mask>
<g mask="url(#mask25_336_685)">
<path fill-rule="evenodd" clip-rule="evenodd" d="M237.642 114.139L242.836 91.6417L234.05 89.6133L230.612 104.503L235.981 105.743L234.225 113.35L237.642 114.139Z" fill="#FFB37F"/>
</g>
<mask id="mask26_336_685" style="mask-type:luminance" maskUnits="userSpaceOnUse" x="35" y="36" width="219" height="120">
<path fill-rule="evenodd" clip-rule="evenodd" d="M253.778 42.3607C253.778 42.3607 169.428 27.4762 115.39 44.5102C98.5221 49.8269 56.7949 64.4013 35.7265 149.727L61.7413 155.733C61.7413 155.733 78.7121 85.1901 122.123 72.964C161.507 61.8693 222.723 80.5618 222.723 80.5618L248.15 81.1981L253.778 42.3607Z" fill="white"/>
</mask>
<g mask="url(#mask26_336_685)">
<path fill-rule="evenodd" clip-rule="evenodd" d="M28.8971 148.15L67.5942 157.084L73.5334 131.359L37.877 120.632L28.8971 148.15Z" fill="#4C32CC"/>
</g>
<mask id="mask27_336_685" style="mask-type:luminance" maskUnits="userSpaceOnUse" x="35" y="36" width="219" height="120">
<path fill-rule="evenodd" clip-rule="evenodd" d="M253.778 42.3607C253.778 42.3607 169.428 27.4762 115.39 44.5102C98.5221 49.8269 56.7949 64.4013 35.7265 149.727L61.7413 155.733C61.7413 155.733 78.7121 85.1901 122.123 72.964C161.507 61.8693 222.723 80.5618 222.723 80.5618L248.15 81.1981L253.778 42.3607Z" fill="white"/>
</mask>
<g mask="url(#mask27_336_685)">
<path fill-rule="evenodd" clip-rule="evenodd" d="M40.3564 117.803L74.0802 128.991L83.1866 105.47L52.4354 91.199L40.3564 117.803Z" fill="#C2C6CE"/>
</g>
<mask id="mask28_336_685" style="mask-type:luminance" maskUnits="userSpaceOnUse" x="35" y="36" width="219" height="120">
<path fill-rule="evenodd" clip-rule="evenodd" d="M253.778 42.3607C253.778 42.3607 169.428 27.4762 115.39 44.5102C98.5221 49.8269 56.7949 64.4013 35.7265 149.727L61.7413 155.733C61.7413 155.733 78.7121 85.1901 122.123 72.964C161.507 61.8693 222.723 80.5618 222.723 80.5618L248.15 81.1981L253.778 42.3607Z" fill="white"/>
</mask>
<g mask="url(#mask28_336_685)">
<path fill-rule="evenodd" clip-rule="evenodd" d="M85.5461 103.435L96.8224 89.3956L74.355 68.4544L54.4664 87.8425L85.5461 103.435Z" fill="#4C32CC"/>
</g>
<mask id="mask29_336_685" style="mask-type:luminance" maskUnits="userSpaceOnUse" x="35" y="36" width="219" height="120">
<path fill-rule="evenodd" clip-rule="evenodd" d="M253.778 42.3607C253.778 42.3607 169.428 27.4762 115.39 44.5102C98.5221 49.8269 56.7949 64.4013 35.7265 149.727L61.7413 155.733C61.7413 155.733 78.7121 85.1901 122.123 72.964C161.507 61.8693 222.723 80.5618 222.723 80.5618L248.15 81.1981L253.778 42.3607Z" fill="white"/>
</mask>
<g mask="url(#mask29_336_685)">
<path fill-rule="evenodd" clip-rule="evenodd" d="M98.5312 87.3456L113.129 78.5399L98.5212 49.8278L76.5882 65.6061L98.5312 87.3456Z" fill="#C2C6CE"/>
</g>
<mask id="mask30_336_685" style="mask-type:luminance" maskUnits="userSpaceOnUse" x="35" y="36" width="219" height="120">
<path fill-rule="evenodd" clip-rule="evenodd" d="M253.778 42.3607C253.778 42.3607 169.428 27.4762 115.39 44.5102C98.5221 49.8269 56.7949 64.4013 35.7265 149.727L61.7413 155.733C61.7413 155.733 78.7121 85.1901 122.123 72.964C161.507 61.8693 222.723 80.5618 222.723 80.5618L248.15 81.1981L253.778 42.3607Z" fill="white"/>
</mask>
<g mask="url(#mask30_336_685)">
<path fill-rule="evenodd" clip-rule="evenodd" d="M117.014 75.2489L133.777 70.6936L127.671 39.5223L102.674 46.6772L117.014 75.2489Z" fill="#4C32CC"/>
</g>
<mask id="mask31_336_685" style="mask-type:luminance" maskUnits="userSpaceOnUse" x="35" y="36" width="219" height="120">
<path fill-rule="evenodd" clip-rule="evenodd" d="M253.778 42.3607C253.778 42.3607 169.428 27.4762 115.39 44.5102C98.5221 49.8269 56.7949 64.4013 35.7265 149.727L61.7413 155.733C61.7413 155.733 78.7121 85.1901 122.123 72.964C161.507 61.8693 222.723 80.5618 222.723 80.5618L248.15 81.1981L253.778 42.3607Z" fill="white"/>
</mask>
<g mask="url(#mask31_336_685)">
<path fill-rule="evenodd" clip-rule="evenodd" d="M137.134 69.5128L155.962 69.1831L161.015 35.0598L132.087 38.3313L137.134 69.5128Z" fill="#4C32CC"/>
</g>
<mask id="mask32_336_685" style="mask-type:luminance" maskUnits="userSpaceOnUse" x="35" y="36" width="219" height="120">
<path fill-rule="evenodd" clip-rule="evenodd" d="M253.778 42.3607C253.778 42.3607 169.428 27.4762 115.39 44.5102C98.5221 49.8269 56.7949 64.4013 35.7265 149.727L61.7413 155.733C61.7413 155.733 78.7121 85.1901 122.123 72.964C161.507 61.8693 222.723 80.5618 222.723 80.5618L248.15 81.1981L253.778 42.3607Z" fill="white"/>
</mask>
<g mask="url(#mask32_336_685)">
<path fill-rule="evenodd" clip-rule="evenodd" d="M159.138 69.1502L183.914 73.8495L192.331 32.9377L165.089 34.4713L159.138 69.1502Z" fill="#FFB37F"/>
</g>
<mask id="mask33_336_685" style="mask-type:luminance" maskUnits="userSpaceOnUse" x="35" y="36" width="219" height="120">
<path fill-rule="evenodd" clip-rule="evenodd" d="M253.778 42.3607C253.778 42.3607 169.428 27.4762 115.39 44.5102C98.5221 49.8269 56.7949 64.4013 35.7265 149.727L61.7413 155.733C61.7413 155.733 78.7121 85.1901 122.123 72.964C161.507 61.8693 222.723 80.5618 222.723 80.5618L248.15 81.1981L253.778 42.3607Z" fill="white"/>
</mask>
<g mask="url(#mask33_336_685)">
<path fill-rule="evenodd" clip-rule="evenodd" d="M186.939 74.095L214.919 78.7598L224.863 35.6863L196.233 33.8388L186.939 74.095Z" fill="#FFB37F"/>
</g>
<mask id="mask34_336_685" style="mask-type:luminance" maskUnits="userSpaceOnUse" x="35" y="36" width="219" height="120">
<path fill-rule="evenodd" clip-rule="evenodd" d="M253.778 42.3607C253.778 42.3607 169.428 27.4762 115.39 44.5102C98.5221 49.8269 56.7949 64.4013 35.7265 149.727L61.7413 155.733C61.7413 155.733 78.7121 85.1901 122.123 72.964C161.507 61.8693 222.723 80.5618 222.723 80.5618L248.15 81.1981L253.778 42.3607Z" fill="white"/>
</mask>
<g mask="url(#mask34_336_685)">
<path fill-rule="evenodd" clip-rule="evenodd" d="M217.953 79.4598L222.723 80.561L225.51 68.4881L246.621 73.3618L249.355 61.5202L237.349 58.7486L241.773 39.5895L227.898 36.3862L217.953 79.4598Z" fill="#FFB37F"/>
</g>
<mask id="mask35_336_685" style="mask-type:luminance" maskUnits="userSpaceOnUse" x="35" y="36" width="219" height="120">
<path fill-rule="evenodd" clip-rule="evenodd" d="M253.778 42.3607C253.778 42.3607 169.428 27.4762 115.39 44.5102C98.5221 49.8269 56.7949 64.4013 35.7265 149.727L61.7413 155.733C61.7413 155.733 78.7121 85.1901 122.123 72.964C161.507 61.8693 222.723 80.5618 222.723 80.5618L248.15 81.1981L253.778 42.3607Z" fill="white"/>
</mask>
<g mask="url(#mask35_336_685)">
<path fill-rule="evenodd" clip-rule="evenodd" d="M241.319 56.2648L250.098 58.2916L253.776 42.3616L244.997 40.3347L241.319 56.2648Z" fill="#FFB37F"/>
</g>
<path fill-rule="evenodd" clip-rule="evenodd" d="M370.218 232.296L362.619 230.542L359.374 244.6C356.693 256.209 352.532 267.431 346.884 277.919C343.195 284.771 338.966 291.749 335.398 295.342L341.878 301.7C341.878 301.7 359.793 287.775 370.218 232.296Z" fill="#66A5FF"/>
<mask id="mask36_336_685" style="mask-type:luminance" maskUnits="userSpaceOnUse" x="199" y="219" width="160" height="93">
<path fill-rule="evenodd" clip-rule="evenodd" d="M332.041 226.335C332.041 226.335 326.079 258.599 312.597 270.716C299.116 282.833 288.544 283.346 207.033 263.619L199.062 298.147C199.062 298.147 276.874 321.37 313.681 305.858C346.263 292.126 358.573 228.71 358.573 228.71L338.757 219.021L332.041 226.335Z" fill="white"/>
</mask>
<g mask="url(#mask36_336_685)">
<path fill-rule="evenodd" clip-rule="evenodd" d="M239.255 269.922L212.245 263.686L208.434 280.194L215.268 281.772L211.184 300.945L233.312 306.054L239.255 269.922Z" fill="#FFB37F"/>
</g>
<mask id="mask37_336_685" style="mask-type:luminance" maskUnits="userSpaceOnUse" x="199" y="219" width="160" height="93">
<path fill-rule="evenodd" clip-rule="evenodd" d="M332.041 226.335C332.041 226.335 326.079 258.599 312.597 270.716C299.116 282.833 288.544 283.346 207.033 263.619L199.062 298.147C199.062 298.147 276.874 321.37 313.681 305.858C346.263 292.126 358.573 228.71 358.573 228.71L338.757 219.021L332.041 226.335Z" fill="white"/>
</mask>
<g mask="url(#mask37_336_685)">
<path fill-rule="evenodd" clip-rule="evenodd" d="M261.819 275.131L241.976 271.004L236.824 306.185L257.803 311.028L261.819 275.131Z" fill="#FFB37F"/>
</g>
<mask id="mask38_336_685" style="mask-type:luminance" maskUnits="userSpaceOnUse" x="199" y="219" width="160" height="93">
<path fill-rule="evenodd" clip-rule="evenodd" d="M332.041 226.335C332.041 226.335 326.079 258.599 312.597 270.716C299.116 282.833 288.544 283.346 207.033 263.619L199.062 298.147C199.062 298.147 276.874 321.37 313.681 305.858C346.263 292.126 358.573 228.71 358.573 228.71L338.757 219.021L332.041 226.335Z" fill="white"/>
</mask>
<g mask="url(#mask38_336_685)">
<path fill-rule="evenodd" clip-rule="evenodd" d="M286.864 277.504C286.013 277.478 263.826 275.594 263.826 275.594L261.185 310.784L288.879 312.575L286.864 277.504Z" fill="#FF4A6D"/>
</g>
<mask id="mask39_336_685" style="mask-type:luminance" maskUnits="userSpaceOnUse" x="199" y="219" width="160" height="93">
<path fill-rule="evenodd" clip-rule="evenodd" d="M332.041 226.335C332.041 226.335 326.079 258.599 312.597 270.716C299.116 282.833 288.544 283.346 207.033 263.619L199.062 298.147C199.062 298.147 276.874 321.37 313.681 305.858C346.263 292.126 358.573 228.71 358.573 228.71L338.757 219.021L332.041 226.335Z" fill="white"/>
</mask>
<g mask="url(#mask39_336_685)">
<path fill-rule="evenodd" clip-rule="evenodd" d="M299.89 276.761L289.305 278.067L292.721 312.269L323.248 306.005L299.89 276.761Z" fill="#FF4A6D"/>
</g>
<mask id="mask40_336_685" style="mask-type:luminance" maskUnits="userSpaceOnUse" x="199" y="219" width="160" height="93">
<path fill-rule="evenodd" clip-rule="evenodd" d="M332.041 226.335C332.041 226.335 326.079 258.599 312.597 270.716C299.116 282.833 288.544 283.346 207.033 263.619L199.062 298.147C199.062 298.147 276.874 321.37 313.681 305.858C346.263 292.126 358.573 228.71 358.573 228.71L338.757 219.021L332.041 226.335Z" fill="white"/>
</mask>
<g mask="url(#mask40_336_685)">
<path fill-rule="evenodd" clip-rule="evenodd" d="M317.882 262.673L307.343 272.685L319.055 283.572L313.631 289.252L326.234 302.96L332.624 298.298L329.968 294.955L344.326 277.303L317.882 262.673Z" fill="#C2C6CE"/>
</g>
<mask id="mask41_336_685" style="mask-type:luminance" maskUnits="userSpaceOnUse" x="199" y="219" width="160" height="93">
<path fill-rule="evenodd" clip-rule="evenodd" d="M332.041 226.335C332.041 226.335 326.079 258.599 312.597 270.716C299.116 282.833 288.544 283.346 207.033 263.619L199.062 298.147C199.062 298.147 276.874 321.37 313.681 305.858C346.263 292.126 358.573 228.71 358.573 228.71L338.757 219.021L332.041 226.335Z" fill="white"/>
</mask>
<g mask="url(#mask41_336_685)">
<path fill-rule="evenodd" clip-rule="evenodd" d="M323.234 244.191L318.922 259.902L345.673 273.692L352.474 252.646L323.234 244.191Z" fill="#C2C6CE"/>
</g>
<mask id="mask42_336_685" style="mask-type:luminance" maskUnits="userSpaceOnUse" x="199" y="219" width="160" height="93">
<path fill-rule="evenodd" clip-rule="evenodd" d="M332.041 226.335C332.041 226.335 326.079 258.599 312.597 270.716C299.116 282.833 288.544 283.346 207.033 263.619L199.062 298.147C199.062 298.147 276.874 321.37 313.681 305.858C346.263 292.126 358.573 228.71 358.573 228.71L338.757 219.021L332.041 226.335Z" fill="white"/>
</mask>
<g mask="url(#mask42_336_685)">
<path fill-rule="evenodd" clip-rule="evenodd" d="M353.446 248.439L323.723 241.577L327.485 225.284L340.394 228.264L341.216 224.703L358.572 228.71L353.446 248.439Z" fill="#FF4A6D"/>
</g>
<mask id="mask43_336_685" style="mask-type:luminance" maskUnits="userSpaceOnUse" x="199" y="219" width="160" height="93">
<path fill-rule="evenodd" clip-rule="evenodd" d="M332.041 226.335C332.041 226.335 326.079 258.599 312.597 270.716C299.116 282.833 288.544 283.346 207.033 263.619L199.062 298.147C199.062 298.147 276.874 321.37 313.681 305.858C346.263 292.126 358.573 228.71 358.573 228.71L338.757 219.021L332.041 226.335Z" fill="white"/>
</mask>
<g mask="url(#mask43_336_685)">
<path fill-rule="evenodd" clip-rule="evenodd" d="M204.255 275.65L199.061 298.147L207.847 300.176L211.285 285.287L205.916 284.047L207.673 276.439L204.255 275.65Z" fill="#FFB37F"/>
</g>
<mask id="mask44_336_685" style="mask-type:luminance" maskUnits="userSpaceOnUse" x="188" y="233" width="218" height="121">
<path fill-rule="evenodd" clip-rule="evenodd" d="M379.851 233.869C379.851 233.869 362.882 304.41 319.546 316.657C280.232 327.766 219.137 309.104 219.137 309.104L193.758 308.478L188.126 347.313L188.149 347.318C189.726 347.594 272.824 361.996 326.254 345.105C343.095 339.779 384.748 325.192 405.816 239.863L379.851 233.869Z" fill="white"/>
</mask>
<g mask="url(#mask44_336_685)">
<path fill-rule="evenodd" clip-rule="evenodd" d="M412.63 241.436L374.009 232.52L368.07 258.247L403.655 268.957L412.63 241.436Z" fill="#C2C6CE"/>
</g>
<mask id="mask45_336_685" style="mask-type:luminance" maskUnits="userSpaceOnUse" x="188" y="233" width="218" height="121">
<path fill-rule="evenodd" clip-rule="evenodd" d="M379.851 233.869C379.851 233.869 362.882 304.41 319.546 316.657C280.232 327.766 219.137 309.104 219.137 309.104L193.758 308.478L188.126 347.313L188.149 347.318C189.726 347.594 272.824 361.996 326.254 345.105C343.095 339.779 384.748 325.192 405.816 239.863L379.851 233.869Z" fill="white"/>
</mask>
<g mask="url(#mask45_336_685)">
<path fill-rule="evenodd" clip-rule="evenodd" d="M401.179 271.786L367.523 260.614L358.424 284.136L389.111 298.392L401.179 271.786Z" fill="#66A5FF"/>
</g>
<mask id="mask46_336_685" style="mask-type:luminance" maskUnits="userSpaceOnUse" x="188" y="233" width="218" height="121">
<path fill-rule="evenodd" clip-rule="evenodd" d="M379.851 233.869C379.851 233.869 362.882 304.41 319.546 316.657C280.232 327.766 219.137 309.104 219.137 309.104L193.758 308.478L188.126 347.313L188.149 347.318C189.726 347.594 272.824 361.996 326.254 345.105C343.095 339.779 384.748 325.192 405.816 239.863L379.851 233.869Z" fill="white"/>
</mask>
<g mask="url(#mask46_336_685)">
<path fill-rule="evenodd" clip-rule="evenodd" d="M356.069 286.172L344.807 300.215L367.222 321.145L387.083 301.751L356.069 286.172Z" fill="#66A5FF"/>
</g>
<mask id="mask47_336_685" style="mask-type:luminance" maskUnits="userSpaceOnUse" x="188" y="233" width="218" height="121">
<path fill-rule="evenodd" clip-rule="evenodd" d="M379.851 233.869C379.851 233.869 362.882 304.41 319.546 316.657C280.232 327.766 219.137 309.104 219.137 309.104L193.758 308.478L188.126 347.313L188.149 347.318C189.726 347.594 272.824 361.996 326.254 345.105C343.095 339.779 384.748 325.192 405.816 239.863L379.851 233.869Z" fill="white"/>
</mask>
<g mask="url(#mask47_336_685)">
<path fill-rule="evenodd" clip-rule="evenodd" d="M343.101 302.265L328.527 311.076L343.094 339.779L364.993 323.993L343.101 302.265Z" fill="#89DDBF"/>
</g>
<mask id="mask48_336_685" style="mask-type:luminance" maskUnits="userSpaceOnUse" x="188" y="233" width="218" height="121">
<path fill-rule="evenodd" clip-rule="evenodd" d="M379.851 233.869C379.851 233.869 362.882 304.41 319.546 316.657C280.232 327.766 219.137 309.104 219.137 309.104L193.758 308.478L188.126 347.313L188.149 347.318C189.726 347.594 272.824 361.996 326.254 345.105C343.095 339.779 384.748 325.192 405.816 239.863L379.851 233.869Z" fill="white"/>
</mask>
<g mask="url(#mask48_336_685)">
<path fill-rule="evenodd" clip-rule="evenodd" d="M324.647 314.369L307.913 318.931L313.994 350.096L338.948 342.933L324.647 314.369Z" fill="#C2C6CE"/>
</g>
<mask id="mask49_336_685" style="mask-type:luminance" maskUnits="userSpaceOnUse" x="188" y="233" width="218" height="121">
<path fill-rule="evenodd" clip-rule="evenodd" d="M379.851 233.869C379.851 233.869 362.882 304.41 319.546 316.657C280.232 327.766 219.137 309.104 219.137 309.104L193.758 308.478L188.126 347.313L188.149 347.318C189.726 347.594 272.824 361.996 326.254 345.105C343.095 339.779 384.748 325.192 405.816 239.863L379.851 233.869Z" fill="white"/>
</mask>
<g mask="url(#mask49_336_685)">
<path fill-rule="evenodd" clip-rule="evenodd" d="M304.563 320.114L285.768 320.45L280.712 354.573L309.585 351.289L304.563 320.114Z" fill="#89DDBF"/>
</g>
<mask id="mask50_336_685" style="mask-type:luminance" maskUnits="userSpaceOnUse" x="188" y="233" width="218" height="121">
<path fill-rule="evenodd" clip-rule="evenodd" d="M379.851 233.869C379.851 233.869 362.882 304.41 319.546 316.657C280.232 327.766 219.137 309.104 219.137 309.104L193.758 308.478L188.126 347.313L188.149 347.318C189.726 347.594 272.824 361.996 326.254 345.105C343.095 339.779 384.748 325.192 405.816 239.863L379.851 233.869Z" fill="white"/>
</mask>
<g mask="url(#mask50_336_685)">
<path fill-rule="evenodd" clip-rule="evenodd" d="M282.599 320.485L257.873 315.797L249.452 356.709L276.644 355.163L282.599 320.485Z" fill="#89DDBF"/>
</g>
<mask id="mask51_336_685" style="mask-type:luminance" maskUnits="userSpaceOnUse" x="188" y="233" width="218" height="121">
<path fill-rule="evenodd" clip-rule="evenodd" d="M379.851 233.869C379.851 233.869 362.882 304.41 319.546 316.657C280.232 327.766 219.137 309.104 219.137 309.104L193.758 308.478L188.126 347.313L188.149 347.318C189.726 347.594 272.824 361.996 326.254 345.105C343.095 339.779 384.748 325.192 405.816 239.863L379.851 233.869Z" fill="white"/>
</mask>
<g mask="url(#mask51_336_685)">
<path fill-rule="evenodd" clip-rule="evenodd" d="M254.852 315.553L226.926 310.902L216.982 353.975L245.558 355.81L254.852 315.553Z" fill="#FFB37F"/>
</g>
<mask id="mask52_336_685" style="mask-type:luminance" maskUnits="userSpaceOnUse" x="188" y="233" width="218" height="121">
<path fill-rule="evenodd" clip-rule="evenodd" d="M379.851 233.869C379.851 233.869 362.882 304.41 319.546 316.657C280.232 327.766 219.137 309.104 219.137 309.104L193.758 308.478L188.126 347.313L188.149 347.318C189.726 347.594 272.824 361.996 326.254 345.105C343.095 339.779 384.748 325.192 405.816 239.863L379.851 233.869Z" fill="white"/>
</mask>
<g mask="url(#mask52_336_685)">
<path fill-rule="evenodd" clip-rule="evenodd" d="M223.898 310.203L219.139 309.104L216.352 321.176L195.283 316.312L192.549 328.153L204.53 330.919L200.106 350.08L213.953 353.277L223.898 310.203Z" fill="#FFB37F"/>
</g>
<mask id="mask53_336_685" style="mask-type:luminance" maskUnits="userSpaceOnUse" x="188" y="233" width="218" height="121">
<path fill-rule="evenodd" clip-rule="evenodd" d="M379.851 233.869C379.851 233.869 362.882 304.41 319.546 316.657C280.232 327.766 219.137 309.104 219.137 309.104L193.758 308.478L188.126 347.313L188.149 347.318C189.726 347.594 272.824 361.996 326.254 345.105C343.095 339.779 384.748 325.192 405.816 239.863L379.851 233.869Z" fill="white"/>
</mask>
<g mask="url(#mask53_336_685)">
<path fill-rule="evenodd" clip-rule="evenodd" d="M188.126 347.314L196.888 349.337L200.566 333.406L191.804 331.383L188.126 347.314Z" fill="#FFB37F"/>
</g>
<path fill-rule="evenodd" clip-rule="evenodd" d="M371.572 227.399L363.973 225.645L367.218 211.587C369.898 199.98 371.078 188.067 370.599 176.165C370.287 168.389 369.545 160.265 367.913 155.471L376.524 152.596C376.524 152.596 386.522 172.967 371.572 227.399Z" fill="#66A5FF"/>
<mask id="mask54_336_685" style="mask-type:luminance" maskUnits="userSpaceOnUse" x="239" y="92" width="128" height="133">
<path fill-rule="evenodd" clip-rule="evenodd" d="M247.258 92.3405L239.287 126.867C321.196 144.87 330.473 149.967 337.278 166.767C344.083 183.568 335.298 215.18 335.298 215.18L338.129 224.698L360.186 224.676C360.186 224.676 376.922 162.281 353.657 135.658C335.381 114.741 291.068 101.968 265.769 96.1259C254.687 93.5673 247.258 92.3405 247.258 92.3405Z" fill="white"/>
</mask>
<g mask="url(#mask54_336_685)">
<path fill-rule="evenodd" clip-rule="evenodd" d="M271.01 135.33L244 129.094L247.812 112.585L254.646 114.163L259.38 95.1398L281.508 100.249L271.01 135.33Z" fill="#FFB37F"/>
</g>
<mask id="mask55_336_685" style="mask-type:luminance" maskUnits="userSpaceOnUse" x="239" y="92" width="128" height="133">
<path fill-rule="evenodd" clip-rule="evenodd" d="M247.258 92.3405L239.287 126.867C321.196 144.87 330.473 149.967 337.278 166.767C344.083 183.568 335.298 215.18 335.298 215.18L338.129 224.698L360.186 224.676C360.186 224.676 376.922 162.281 353.657 135.658C335.381 114.741 291.068 101.968 265.769 96.1259C254.687 93.5673 247.258 92.3405 247.258 92.3405Z" fill="white"/>
</mask>
<g mask="url(#mask55_336_685)">
<path fill-rule="evenodd" clip-rule="evenodd" d="M293.574 140.539L273.93 135.549L284.722 101.672L305.701 106.515L293.574 140.539Z" fill="#FFB37F"/>
</g>
<mask id="mask56_336_685" style="mask-type:luminance" maskUnits="userSpaceOnUse" x="239" y="92" width="128" height="133">
<path fill-rule="evenodd" clip-rule="evenodd" d="M247.258 92.3405L239.287 126.867C321.196 144.87 330.473 149.967 337.278 166.767C344.083 183.568 335.298 215.18 335.298 215.18L338.129 224.698L360.186 224.676C360.186 224.676 376.922 162.281 353.657 135.658C335.381 114.741 291.068 101.968 265.769 96.1259C254.687 93.5673 247.258 92.3405 247.258 92.3405Z" fill="white"/>
</mask>
<g mask="url(#mask56_336_685)">
<path fill-rule="evenodd" clip-rule="evenodd" d="M317.125 149.385C316.349 149.035 295.581 141.002 295.581 141.002L308.634 108.216L334.31 118.747L317.125 149.385Z" fill="#FF4A6D"/>
</g>
<mask id="mask57_336_685" style="mask-type:luminance" maskUnits="userSpaceOnUse" x="239" y="92" width="128" height="133">
<path fill-rule="evenodd" clip-rule="evenodd" d="M247.258 92.3405L239.287 126.867C321.196 144.87 330.473 149.967 337.278 166.767C344.083 183.568 335.298 215.18 335.298 215.18L338.129 224.698L360.186 224.676C360.186 224.676 376.922 162.281 353.657 135.658C335.381 114.741 291.068 101.968 265.769 96.1259C254.687 93.5673 247.258 92.3405 247.258 92.3405Z" fill="white"/>
</mask>
<g mask="url(#mask57_336_685)">
<path fill-rule="evenodd" clip-rule="evenodd" d="M328.507 155.764L319.565 149.949L337.629 120.706L362.321 139.719L328.507 155.764Z" fill="#C2C6CE"/>
</g>
<mask id="mask58_336_685" style="mask-type:luminance" maskUnits="userSpaceOnUse" x="239" y="92" width="128" height="133">
<path fill-rule="evenodd" clip-rule="evenodd" d="M247.258 92.3405L239.287 126.867C321.196 144.87 330.473 149.967 337.278 166.767C344.083 183.568 335.298 215.18 335.298 215.18L338.129 224.698L360.186 224.676C360.186 224.676 376.922 162.281 353.657 135.658C335.381 114.741 291.068 101.968 265.769 96.1259C254.687 93.5673 247.258 92.3405 247.258 92.3405Z" fill="white"/>
</mask>
<g mask="url(#mask58_336_685)">
<path fill-rule="evenodd" clip-rule="evenodd" d="M338.502 176.312L333.419 162.695L348.718 158.044L346.333 150.56L363.67 143.764L367.368 150.757L363.516 152.595L368.683 174.757L338.502 176.312Z" fill="#FF4A6D"/>
</g>
<mask id="mask59_336_685" style="mask-type:luminance" maskUnits="userSpaceOnUse" x="239" y="92" width="128" height="133">
<path fill-rule="evenodd" clip-rule="evenodd" d="M247.258 92.3405L239.287 126.867C321.196 144.87 330.473 149.967 337.278 166.767C344.083 183.568 335.298 215.18 335.298 215.18L338.129 224.698L360.186 224.676C360.186 224.676 376.922 162.281 353.657 135.658C335.381 114.741 291.068 101.968 265.769 96.1259C254.687 93.5673 247.258 92.3405 247.258 92.3405Z" fill="white"/>
</mask>
<g mask="url(#mask59_336_685)">
<path fill-rule="evenodd" clip-rule="evenodd" d="M335.211 195.27L338.222 179.258L368.311 178.592L365.198 200.488L335.211 195.27Z" fill="#FF4A6D"/>
</g>
<mask id="mask60_336_685" style="mask-type:luminance" maskUnits="userSpaceOnUse" x="239" y="92" width="128" height="133">
<path fill-rule="evenodd" clip-rule="evenodd" d="M247.258 92.3405L239.287 126.867C321.196 144.87 330.473 149.967 337.278 166.767C344.083 183.568 335.298 215.18 335.298 215.18L338.129 224.698L360.186 224.676C360.186 224.676 376.922 162.281 353.657 135.658C335.381 114.741 291.068 101.968 265.769 96.1259C254.687 93.5673 247.258 92.3405 247.258 92.3405Z" fill="white"/>
</mask>
<g mask="url(#mask60_336_685)">
<path fill-rule="evenodd" clip-rule="evenodd" d="M364.227 204.698L334.504 197.836L330.743 214.128L343.652 217.109L342.83 220.668L360.186 224.675L364.227 204.698Z" fill="#FF4A6D"/>
</g>
<mask id="mask61_336_685" style="mask-type:luminance" maskUnits="userSpaceOnUse" x="239" y="92" width="128" height="133">
<path fill-rule="evenodd" clip-rule="evenodd" d="M247.258 92.3405L239.287 126.867C321.196 144.87 330.473 149.967 337.278 166.767C344.083 183.568 335.298 215.18 335.298 215.18L338.129 224.698L360.186 224.676C360.186 224.676 376.922 162.281 353.657 135.658C335.381 114.741 291.068 101.968 265.769 96.1259C254.687 93.5673 247.258 92.3405 247.258 92.3405Z" fill="white"/>
</mask>
<g mask="url(#mask61_336_685)">
<path fill-rule="evenodd" clip-rule="evenodd" d="M242.064 114.838L247.258 92.3408L256.044 94.3692L252.606 109.259L247.237 108.02L245.481 115.627L242.064 114.838Z" fill="#FFB37F"/>
</g>
<mask id="mask62_336_685" style="mask-type:luminance" maskUnits="userSpaceOnUse" x="246" y="43" width="168" height="193">
<path fill-rule="evenodd" clip-rule="evenodd" d="M258.894 43.7157L246.932 81.0908L270.017 91.6544C270.017 91.6544 333.11 101.661 363.575 128.881C397.157 158.883 381.485 229.725 381.485 229.725L407.449 235.72C425.919 149.794 394.877 118.42 382.074 106.253C341.067 67.2761 258.894 43.7157 258.894 43.7157Z" fill="white"/>
</mask>
<g mask="url(#mask62_336_685)">
<path fill-rule="evenodd" clip-rule="evenodd" d="M414.264 237.293L375.643 228.377L381.582 202.651L418.261 208.625L414.264 237.293Z" fill="#C2C6CE"/>
</g>
<mask id="mask63_336_685" style="mask-type:luminance" maskUnits="userSpaceOnUse" x="246" y="43" width="168" height="193">
<path fill-rule="evenodd" clip-rule="evenodd" d="M258.894 43.7157L246.932 81.0908L270.017 91.6544C270.017 91.6544 333.11 101.661 363.575 128.881C397.157 158.883 381.485 229.725 381.485 229.725L407.449 235.72C425.919 149.794 394.877 118.42 382.074 106.253C341.067 67.2761 258.894 43.7157 258.894 43.7157Z" fill="white"/>
</mask>
<g mask="url(#mask63_336_685)">
<path fill-rule="evenodd" clip-rule="evenodd" d="M417.276 204.996L382.129 200.284L384.262 175.152L418.093 175.792L417.276 204.996Z" fill="#66A5FF"/>
</g>
<mask id="mask64_336_685" style="mask-type:luminance" maskUnits="userSpaceOnUse" x="246" y="43" width="168" height="193">
<path fill-rule="evenodd" clip-rule="evenodd" d="M258.894 43.7157L246.932 81.0908L270.017 91.6544C270.017 91.6544 333.11 101.661 363.575 128.881C397.157 158.883 381.485 229.725 381.485 229.725L407.449 235.72C425.919 149.794 394.877 118.42 382.074 106.253C341.067 67.2761 258.894 43.7157 258.894 43.7157Z" fill="white"/>
</mask>
<g mask="url(#mask64_336_685)">
<path fill-rule="evenodd" clip-rule="evenodd" d="M383.037 172.29L379.072 154.732L408.393 145.747L417.742 171.885L383.037 172.29Z" fill="#66A5FF"/>
</g>
<mask id="mask65_336_685" style="mask-type:luminance" maskUnits="userSpaceOnUse" x="246" y="43" width="168" height="193">
<path fill-rule="evenodd" clip-rule="evenodd" d="M258.894 43.7157L246.932 81.0908L270.017 91.6544C270.017 91.6544 333.11 101.661 363.575 128.881C397.157 158.883 381.485 229.725 381.485 229.725L407.449 235.72C425.919 149.794 394.877 118.42 382.074 106.253C341.067 67.2761 258.894 43.7157 258.894 43.7157Z" fill="white"/>
</mask>
<g mask="url(#mask65_336_685)">
<path fill-rule="evenodd" clip-rule="evenodd" d="M378.437 152.141L369.201 137.833L394.876 118.421L407.639 142.209L378.437 152.141Z" fill="#89DDBF"/>
</g>
<mask id="mask66_336_685" style="mask-type:luminance" maskUnits="userSpaceOnUse" x="246" y="43" width="168" height="193">
<path fill-rule="evenodd" clip-rule="evenodd" d="M258.894 43.7157L246.932 81.0908L270.017 91.6544C270.017 91.6544 333.11 101.661 363.575 128.881C397.157 158.883 381.485 229.725 381.485 229.725L407.449 235.72C425.919 149.794 394.877 118.42 382.074 106.253C341.067 67.2761 258.894 43.7157 258.894 43.7157Z" fill="white"/>
</mask>
<g mask="url(#mask66_336_685)">
<path fill-rule="evenodd" clip-rule="evenodd" d="M367.156 133.173L354.116 121.736L373.244 96.391L392.531 113.77L367.156 133.173Z" fill="#C2C6CE"/>
</g>
<mask id="mask67_336_685" style="mask-type:luminance" maskUnits="userSpaceOnUse" x="246" y="43" width="168" height="193">
<path fill-rule="evenodd" clip-rule="evenodd" d="M258.894 43.7157L246.932 81.0908L270.017 91.6544C270.017 91.6544 333.11 101.661 363.575 128.881C397.157 158.883 381.485 229.725 381.485 229.725L407.449 235.72C425.919 149.794 394.877 118.42 382.074 106.253C341.067 67.2761 258.894 43.7157 258.894 43.7157Z" fill="white"/>
</mask>
<g mask="url(#mask67_336_685)">
<path fill-rule="evenodd" clip-rule="evenodd" d="M351.623 119.206L334.879 110.663L345.292 77.7775L369.804 93.3866L351.623 119.206Z" fill="#89DDBF"/>
</g>
<mask id="mask68_336_685" style="mask-type:luminance" maskUnits="userSpaceOnUse" x="246" y="43" width="168" height="193">
<path fill-rule="evenodd" clip-rule="evenodd" d="M258.894 43.7157L246.932 81.0908L270.017 91.6544C270.017 91.6544 333.11 101.661 363.575 128.881C397.157 158.883 381.485 229.725 381.485 229.725L407.449 235.72C425.919 149.794 394.877 118.42 382.074 106.253C341.067 67.2761 258.894 43.7157 258.894 43.7157Z" fill="white"/>
</mask>
<g mask="url(#mask68_336_685)">
<path fill-rule="evenodd" clip-rule="evenodd" d="M332.045 109.243L307.767 102.617L318.133 62.1552L341.895 75.4641L332.045 109.243Z" fill="#C2C6CE"/>
</g>
<mask id="mask69_336_685" style="mask-type:luminance" maskUnits="userSpaceOnUse" x="246" y="43" width="168" height="193">
<path fill-rule="evenodd" clip-rule="evenodd" d="M258.894 43.7157L246.932 81.0908L270.017 91.6544C270.017 91.6544 333.11 101.661 363.575 128.881C397.157 158.883 381.485 229.725 381.485 229.725L407.449 235.72C425.919 149.794 394.877 118.42 382.074 106.253C341.067 67.2761 258.894 43.7157 258.894 43.7157Z" fill="white"/>
</mask>
<g mask="url(#mask69_336_685)">
<path fill-rule="evenodd" clip-rule="evenodd" d="M304.945 101.513L277.806 93.4522L287.75 50.3787L314.239 61.2565L304.945 101.513Z" fill="#C2C6CE"/>
</g>
<mask id="mask70_336_685" style="mask-type:luminance" maskUnits="userSpaceOnUse" x="246" y="43" width="168" height="193">
<path fill-rule="evenodd" clip-rule="evenodd" d="M258.894 43.7157L246.932 81.0908L270.017 91.6544C270.017 91.6544 333.11 101.661 363.575 128.881C397.157 158.883 381.485 229.725 381.485 229.725L407.449 235.72C425.919 149.794 394.877 118.42 382.074 106.253C341.067 67.2761 258.894 43.7157 258.894 43.7157Z" fill="white"/>
</mask>
<g mask="url(#mask70_336_685)">
<path fill-rule="evenodd" clip-rule="evenodd" d="M274.777 92.7524L270.018 91.6537L272.806 79.5809L251.737 74.7168L254.471 62.8752L266.451 65.641L270.874 46.4819L284.722 49.6789L274.777 92.7524Z" fill="#C2C6CE"/>
</g>
<mask id="mask71_336_685" style="mask-type:luminance" maskUnits="userSpaceOnUse" x="246" y="43" width="168" height="193">
<path fill-rule="evenodd" clip-rule="evenodd" d="M258.894 43.7157L246.932 81.0908L270.017 91.6544C270.017 91.6544 333.11 101.661 363.575 128.881C397.157 158.883 381.485 229.725 381.485 229.725L407.449 235.72C425.919 149.794 394.877 118.42 382.074 106.253C341.067 67.2761 258.894 43.7157 258.894 43.7157Z" fill="white"/>
</mask>
<g mask="url(#mask71_336_685)">
<path fill-rule="evenodd" clip-rule="evenodd" d="M255.216 59.6471L263.978 61.6699L267.656 45.7399L258.894 43.717L255.216 59.6471Z" fill="#FFB37F"/>
</g>
</svg>
