<svg width="17" height="16" viewBox="0 0 17 16" fill="none" xmlns="http://www.w3.org/2000/svg">
<path fill-rule="evenodd" clip-rule="evenodd" d="M8.51737 8.80047L7.73566 8.23761C7.41184 8.00504 7.33916 7.55443 7.57173 7.23141C7.8043 6.90758 8.25492 6.8341 8.57793 7.06748L9.35964 7.63034C9.68346 7.86291 9.75695 8.31352 9.52357 8.63654C9.291 8.95956 8.84039 9.03304 8.51737 8.80047ZM11.4665 9.14691L11.8574 9.42874L14.0272 6.41498C14.234 6.12749 14.1694 5.72614 13.8811 5.51941L12.9718 4.86369C12.7586 4.71106 12.4638 4.6828 12.2515 4.83623C11.8235 5.14552 11.2291 5.16248 10.7777 4.83704C10.3263 4.5116 10.1535 3.94228 10.3109 3.43918C10.3893 3.18884 10.2689 2.91831 10.0565 2.76487L9.14644 2.10996C8.85896 1.90242 8.45761 1.96783 8.25007 2.25531L6.081 5.26907L6.47185 5.55091C6.79487 5.78348 6.86836 6.23409 6.63579 6.55711C6.40321 6.88013 5.9526 6.95361 5.62878 6.72104L5.23793 6.43921L2.97276 9.5846C2.76603 9.87289 2.83063 10.2734 3.11893 10.481L4.02822 11.1359C4.24141 11.2893 4.53617 11.3176 4.74855 11.1642C5.17655 10.8549 5.77091 10.8379 6.22232 11.1633C6.67374 11.4888 6.84656 12.0573 6.68908 12.5612C6.61075 12.8107 6.73108 13.0821 6.94346 13.2355L7.85356 13.8904C8.14105 14.0972 8.5424 14.0326 8.74994 13.7443L11.0143 10.5989L10.6234 10.317C10.3004 10.0845 10.2269 9.63386 10.4595 9.31084C10.6921 8.98782 11.1427 8.91433 11.4665 9.14691Z" fill="#95989D"/>
<mask id="mask0_336_157" style="mask-type:luminance" maskUnits="userSpaceOnUse" x="2" y="1" width="13" height="14">
<path fill-rule="evenodd" clip-rule="evenodd" d="M8.51737 8.80047L7.73566 8.23761C7.41184 8.00504 7.33916 7.55443 7.57173 7.23141C7.8043 6.90758 8.25492 6.8341 8.57793 7.06748L9.35964 7.63034C9.68346 7.86291 9.75695 8.31352 9.52357 8.63654C9.291 8.95956 8.84039 9.03304 8.51737 8.80047ZM11.4665 9.14691L11.8574 9.42874L14.0272 6.41498C14.234 6.12749 14.1694 5.72614 13.8811 5.51941L12.9718 4.86369C12.7586 4.71106 12.4638 4.6828 12.2515 4.83623C11.8235 5.14552 11.2291 5.16248 10.7777 4.83704C10.3263 4.5116 10.1535 3.94228 10.3109 3.43918C10.3893 3.18884 10.2689 2.91831 10.0565 2.76487L9.14644 2.10996C8.85896 1.90242 8.45761 1.96783 8.25007 2.25531L6.081 5.26907L6.47185 5.55091C6.79487 5.78348 6.86836 6.23409 6.63579 6.55711C6.40321 6.88013 5.9526 6.95361 5.62878 6.72104L5.23793 6.43921L2.97276 9.5846C2.76603 9.87289 2.83063 10.2734 3.11893 10.481L4.02822 11.1359C4.24141 11.2893 4.53617 11.3176 4.74855 11.1642C5.17655 10.8549 5.77091 10.8379 6.22232 11.1633C6.67374 11.4888 6.84656 12.0573 6.68908 12.5612C6.61075 12.8107 6.73108 13.0821 6.94346 13.2355L7.85356 13.8904C8.14105 14.0972 8.5424 14.0326 8.74994 13.7443L11.0143 10.5989L10.6234 10.317C10.3004 10.0845 10.2269 9.63386 10.4595 9.31084C10.6921 8.98782 11.1427 8.91433 11.4665 9.14691Z" fill="white"/>
</mask>
<g mask="url(#mask0_336_157)">
<rect width="96" height="96" transform="translate(-39.5 -40)" fill="#95989D"/>
<rect x="-39.5" y="-40" width="96" height="96" fill="white"/>
</g>
</svg>
